<?xml version="1.0" encoding="utf-8"?>
<!-- Generator: Adobe Illustrator 13.0.0, SVG Export Plug-In . SVG Version: 6.00 Build 14576)  -->
<!DOCTYPE svg PUBLIC "-//W3C//DTD SVG 1.0//EN" "http://www.w3.org/TR/2001/REC-SVG-20010904/DTD/svg10.dtd">
<svg version="1.0" xmlns="http://www.w3.org/2000/svg" xmlns:xlink="http://www.w3.org/1999/xlink" x="0px" y="0px" width="1024px"
	 height="768px" viewBox="0 0 1024 768" enable-background="new 0 0 1024 768" xml:space="preserve">
<g id="Layer_1" class="zoomlayer" data-max-zoom="2">
	<g>
		<rect x="259.5" y="1" fill="#FFE43F" width="20" height="768"/>
		<rect x="649.525" y="1" fill="#FFE43F" width="20.001" height="768"/>
		<rect y="139" fill="#FFE43F" width="1024" height="20"/>
		<rect y="375" fill="#FFE43F" width="1024" height="20"/>
		
			<rect x="830.728" y="412.435" transform="matrix(-0.4019 0.9157 -0.9157 -0.4019 1735.3523 82.516)" fill="#FFE43F" width="20.001" height="391.091"/>
		<rect x="290.5" y="170.5" fill="#B8B8B8" width="108" height="85"/>
		<rect x="291.5" y="272.5" fill="#B8B8B8" width="62" height="87"/>
		<rect x="368.5" y="298.5" fill="#B8B8B8" width="270" height="60"/>
		<rect x="520.5" y="167.5" fill="#B8B8B8" width="116" height="115"/>
		<rect x="409.5" y="169.5" fill="#B8B8B8" width="92" height="106"/>
		<rect x="319.5" y="46.5" fill="#B8B8B8" width="81" height="80"/>
		<rect x="288.5" y="407.5" fill="#B8B8B8" width="235" height="213"/>
		<rect x="532.5" y="405.5" fill="#B8B8B8" width="104" height="111"/>
	</g>
</g>
<g id="Layer_1_copy" class="zoomlayer" data-min-zoom="2">
	<g display="inline">
		<rect x="264.5" y="1" fill="#FFE43F" width="10" height="768"/>
		<rect x="654.525" y="1" fill="#FFE43F" width="10" height="768"/>
		<rect y="144" fill="#FFE43F" width="1024" height="10"/>
		<rect y="380" fill="#FFE43F" width="1024" height="10"/>
		
			<rect x="836.504" y="402.699" transform="matrix(-0.402 0.9156 -0.9156 -0.402 1728.8047 73.3909)" fill="#FFE43F" width="7.866" height="397.054"/>
		<rect x="290.5" y="170.5" fill="#B8B8B8" width="108" height="85"/>
		<rect x="291.5" y="272.5" fill="#B8B8B8" width="62" height="87"/>
		<rect x="368.5" y="298.5" fill="#B8B8B8" width="270" height="60"/>
		<rect x="520.5" y="167.5" fill="#B8B8B8" width="116" height="115"/>
		<rect x="409.5" y="169.5" fill="#B8B8B8" width="92" height="106"/>
		<rect x="319.5" y="46.5" fill="#B8B8B8" width="81" height="80"/>
		<rect x="288.5" y="407.5" fill="#B8B8B8" width="235" height="213"/>
		<rect x="532.5" y="405.5" fill="#B8B8B8" width="104" height="111"/>
		<circle fill="#4079CC" stroke="#000000" cx="580.062" cy="214.562" r="16"/>
		<rect x="572.938" y="207.938" fill="#FFFFFF" stroke="#000000" width="14.25" height="13.25"/>
		<rect x="540" y="241" fill="none" width="83.75" height="35.25"/>
		<text transform="matrix(1 0 0 1 558.4932 253.7798)"><tspan x="0" y="0" font-family="'MyriadPro-Regular'" font-size="18">Doom</tspan><tspan x="-0.459" y="21.6" font-family="'MyriadPro-Regular'" font-size="18">House</tspan></text>
	</g>
</g>
</svg>
